<svg version="1.1" xmlns="http://www.w3.org/2000/svg" xmlns:xlink="http://www.w3.org/1999/xlink" width="88.91933" height="50.44402" viewBox="0,0,88.91933,50.44402"><g transform="translate(-181.15069,-180.8056)"><g data-paper-data="{&quot;isPaintingLayer&quot;:true}" fill-rule="nonzero" stroke="none" stroke-width="0.66342" stroke-linecap="butt" stroke-linejoin="miter" stroke-miterlimit="10" stroke-dasharray="" stroke-dashoffset="0" style="mix-blend-mode: normal"><g><path d="M242.76315,230.37255c-4.37582,-0.0498 -8.50973,-0.09658 -11.54629,-0.10257c-0.42497,0.01607 -1.00935,0.0241 -1.70184,0.0241c-7.55428,0 -28.24654,-0.93241 -28.45478,-0.94197c-1.02542,0.00554 -2.333,0.11523 -3.71698,0.23189c-1.66614,0.13978 -3.55507,0.29921 -5.36553,0.29921c-3.71403,0 -8.77278,-0.57786 -9.8189,-5.57681c-0.24084,-1.15164 0.38623,-2.92186 1.112,-4.97127c0.54262,-1.53136 1.10335,-3.11448 1.12345,-4.07957c0.0191,-0.89724 -0.09203,-1.98095 -0.20968,-3.12813c-0.28715,-2.79822 -0.61258,-5.97009 0.81521,-8.04656c1.54045,-2.24203 4.22095,-3.82213 6.58563,-5.2162c1.72049,-1.01443 3.34539,-1.97247 4.17114,-2.97728c0.86699,-1.05507 1.57312,-2.21428 2.25605,-3.33583c1.48261,-2.43405 2.88267,-4.73339 5.66884,-5.68339c1.0747,-0.3666 2.12681,-0.54466 3.21508,-0.54466c1.50876,0 2.91033,0.33999 4.39393,0.69962c1.7969,0.43551 3.65566,0.8861 6.10283,0.8861c1.06621,0 2.13742,-0.08498 3.27451,-0.26047c4.59611,-0.7081 6.04802,-1.74816 7.58536,-2.84954c1.60936,-1.15263 3.27345,-2.34506 8.26989,-3.02246c1.06166,-0.14434 2.11173,-0.21726 3.12108,-0.21726c9.71224,0 16.64938,6.88536 17.67481,17.54154c0.41595,4.32958 1.23975,6.58041 5.02118,8.24352c2.90276,1.27687 2.85209,4.22553 4.78627,7.01223c0.62623,0.9025 1.66035,2.01963 2.05492,3.2763c0.80175,2.55352 0.23635,5.68322 -2.84043,8.75925c-2.3987,2.3981 -5.36711,4.09693 -7.33563,4.10141c0,0 -10.89558,-0.06087 -16.2421,-0.12122z" fill="#91b6c5"/><path d="M239.64563,182.31439c-0.96758,0 -1.97345,0.06838 -3.01995,0.21021c-9.55737,1.29651 -6.23063,4.38992 -15.84175,5.86995c-1.24019,0.19111 -2.36219,0.26956 -3.38958,0.26956c-4.62832,0 -7.35665,-1.58571 -10.49729,-1.58571c-0.93393,0 -1.90401,0.13986 -2.97174,0.50395c-3.76171,1.28241 -4.84051,5.44354 -7.58589,8.78438c-2.09315,2.5467 -8.15823,4.41751 -10.71804,8.14162c-1.81805,2.6438 -0.40533,7.62963 -0.47227,10.7623c-0.04927,2.32193 -2.62266,7.10558 -2.25204,8.88088c0.85547,4.08616 4.80783,4.97681 9.08063,4.97681c3.26435,0 6.71534,-0.5195 9.11671,-0.53004c0,0 20.79589,0.94091 28.42059,0.94091c0.68142,0 1.25626,-0.00803 1.70336,-0.0241c6.70578,0.01304 18.77263,0.22582 26.82677,0.22582c0.32642,0 0.64624,0 0.95902,-0.00106c5.56251,-0.01298 7.68298,-5.82621 9.70372,-10.94149c0.56067,-1.41929 0.15859,-2.02591 -0.6575,-2.77089c-0.67402,-0.61528 -0.6129,-1.32496 -1.54259,-2.66481c-1.36184,-1.96222 -2.56152,-4.33047 -4.1449,-5.24954c-3.39145,-1.96857 -5.2514,-3.29749 -5.79377,-8.9397c-0.88367,-9.19017 -6.68069,-16.85907 -16.9235,-16.85907M239.44213,182.31439v-1.50876v0c5.24334,0 9.76554,1.89045 13.07772,5.46613c3.0079,3.24684 4.85658,7.65836 5.34742,12.75683c0.35561,3.70145 0.25227,5.61052 4.37057,7.42197c2.85909,1.25777 4.22848,4.55236 4.53896,5.12593c1.58226,2.92306 4.40285,6.06552 2.83258,9.07487c-2.60006,4.98332 -4.80846,10.58318 -10.80516,10.59728l-0.96258,0.00099c-4.41054,0 -9.94103,-0.06284 -15.28951,-0.12319c-4.36126,-0.0498 -8.48108,-0.09604 -11.51165,-0.10264c-0.44657,0.01562 -1.02793,0.02418 -1.72898,0.02418c-7.41646,0 -27.43891,-0.89519 -28.45023,-0.94098c-1.02694,0.00705 -2.30533,0.11416 -3.65816,0.22833c-1.68076,0.14183 -3.5863,0.30179 -5.42845,0.30179c-2.29123,0 -9.26408,0 -10.55657,-6.17681c-0.2842,-1.35836 0.37516,-3.22061 1.13906,-5.37706c0.49789,-1.4062 1.06265,-3.0004 1.08023,-3.84479c0.01812,-0.84993 -0.09097,-1.91106 -0.20619,-3.03458c-0.30073,-2.92739 -0.64117,-6.24564 0.94348,-8.54999c1.63551,-2.37977 4.39242,-4.0052 6.82503,-5.43945c1.66114,-0.97971 3.23016,-1.90455 3.97146,-2.80626c0.8328,-1.01391 1.52537,-2.14993 2.19473,-3.24934c1.48708,-2.44216 3.02503,-4.96672 6.07015,-6.00473c1.15414,-0.39381 2.2857,-0.58492 3.45849,-0.58492c1.59874,0 3.04262,0.35007 4.57147,0.72069c1.75415,0.42497 3.56765,0.86502 5.92529,0.86502c1.02694,0 2.06048,-0.08202 3.15982,-0.25145c4.41759,-0.68043 5.79907,-1.6697 7.26106,-2.71726c1.68425,-1.20645 3.42581,-2.45368 8.6073,-3.15679c1.09585,-0.14835 2.17965,-0.22378 3.22266,-0.22378z" fill="#000000"/></g><path d="M204.76354,199.22174c-3.26185,-0.76791 -5.89057,-0.04677 -8.57008,1.90098c-1.97141,1.43227 -3.8141,3.366 -6.07516,4.33814c-0.36766,0.15737 -0.84796,-0.31081 -0.47174,-0.61107c4.66797,-3.72707 9.00862,-9.17812 15.60736,-7.40084c1.14611,0.3083 0.66179,2.04335 -0.49039,1.7728z" fill="#231f20"/><path d="M194.94972,204.09644c-0.261,0.02312 -0.30929,-0.39123 -0.06231,-0.4521c5.12463,-1.23563 9.17061,-4.69011 14.61211,-2.83135c0.99419,0.33946 0.57074,1.91804 -0.43505,1.58009c-2.80626,-0.94197 -5.39927,-0.9143 -8.16429,0.14835c-1.989,0.76549 -3.82213,1.36746 -5.95046,1.555z" fill="#231f20"/><path d="M249.18273,215.60308c1.54697,-1.34426 3.53597,-2.85151 4.36073,-4.78016c0.59947,-1.39764 0.86957,-3.01647 0.36463,-4.49506c-0.46424,-1.36337 -1.34176,-1.81297 -2.12931,-2.83536c-1.07576,-1.39407 -2.10323,-5.14032 -1.13459,-6.78478c0.29875,-0.50494 0.95099,-0.43603 1.26232,0c0.71614,1.00079 0.48728,3.03003 0.63669,4.19123c0.26047,2.01469 2.35362,3.15428 2.59703,5.26199c0.48781,4.19426 -2.27319,7.5376 -5.29064,10.10901c-0.45969,0.39123 -1.12754,-0.26608 -0.66687,-0.66687z" fill="#231f20"/><path d="M247.57791,219.47297c-0.29671,0.08453 -0.49986,-0.36713 -0.21271,-0.50843c2.10468,-1.02444 4.76758,-2.07048 6.36283,-3.84631c0.84387,-0.94037 1.84368,-2.21277 1.88688,-3.55256c0.02365,-0.71712 -0.06686,-1.37792 0.10514,-2.07746c0.1247,-0.50395 0.86047,-0.60304 1.10995,-0.14434c1.06265,1.96133 -0.77504,4.60967 -2.20125,5.91422c-2.10119,1.92311 -4.31145,3.43286 -7.05085,4.21488z" fill="#231f20"/><path d="M236.06278,185.91319c-2.91541,0.13478 -4.5936,1.70131 -6.96185,3.1301c-1.95579,1.18136 -3.76982,1.81805 -5.97805,2.34657c-0.04525,0.01062 -0.06087,-0.05427 -0.01767,-0.06785c2.7776,-0.90974 5.26957,-2.64836 7.64381,-4.2944c1.6108,-1.11791 3.27747,-2.24143 5.31376,-2.04585c0.59038,0.05739 0.60797,0.90323 0,0.93143z" fill="#231f20"/></g></g></svg>